<?xml version="1.0" encoding="UTF-8" standalone="no"?>
<!-- Created with Inkscape (http://www.inkscape.org/) -->

<svg
   xmlns:dc="http://purl.org/dc/elements/1.1/"
   xmlns:cc="http://creativecommons.org/ns#"
   xmlns:rdf="http://www.w3.org/1999/02/22-rdf-syntax-ns#"
   xmlns:svg="http://www.w3.org/2000/svg"
   xmlns="http://www.w3.org/2000/svg"
   xmlns:xlink="http://www.w3.org/1999/xlink"
   xmlns:sodipodi="http://sodipodi.sourceforge.net/DTD/sodipodi-0.dtd"
   xmlns:inkscape="http://www.inkscape.org/namespaces/inkscape"
   width="96"
   height="96"
   id="svg6517"
   version="1.1"
   inkscape:version="0.91 r13725"
   sodipodi:docname="icon.svg">
  <defs
     id="defs6519">
    <linearGradient
       inkscape:collect="always"
       id="linearGradient4864">
      <stop
         style="stop-color:#ff5237;stop-opacity:1;"
         offset="0"
         id="stop4866" />
      <stop
         style="stop-color:#ff5237;stop-opacity:0;"
         offset="1"
         id="stop4868" />
    </linearGradient>
    <linearGradient
       id="Background">
      <stop
         id="stop4178"
         offset="0"
         style="stop-color:#b8b8b8;stop-opacity:1" />
      <stop
         id="stop4180"
         offset="1"
         style="stop-color:#c9c9c9;stop-opacity:1" />
    </linearGradient>
    <filter
       style="color-interpolation-filters:sRGB;"
       inkscape:label="Inner Shadow"
       id="filter1121">
      <feFlood
         flood-opacity="0.59999999999999998"
         flood-color="rgb(0,0,0)"
         result="flood"
         id="feFlood1123" />
      <feComposite
         in="flood"
         in2="SourceGraphic"
         operator="out"
         result="composite1"
         id="feComposite1125" />
      <feGaussianBlur
         in="composite1"
         stdDeviation="1"
         result="blur"
         id="feGaussianBlur1127" />
      <feOffset
         dx="0"
         dy="2"
         result="offset"
         id="feOffset1129" />
      <feComposite
         in="offset"
         in2="SourceGraphic"
         operator="atop"
         result="composite2"
         id="feComposite1131" />
    </filter>
    <filter
       style="color-interpolation-filters:sRGB;"
       inkscape:label="Drop Shadow"
       id="filter950">
      <feFlood
         flood-opacity="0.25"
         flood-color="rgb(0,0,0)"
         result="flood"
         id="feFlood952" />
      <feComposite
         in="flood"
         in2="SourceGraphic"
         operator="in"
         result="composite1"
         id="feComposite954" />
      <feGaussianBlur
         in="composite1"
         stdDeviation="1"
         result="blur"
         id="feGaussianBlur956" />
      <feOffset
         dx="0"
         dy="1"
         result="offset"
         id="feOffset958" />
      <feComposite
         in="SourceGraphic"
         in2="offset"
         operator="over"
         result="composite2"
         id="feComposite960" />
    </filter>
    <clipPath
       clipPathUnits="userSpaceOnUse"
       id="clipPath873">
      <g
         transform="matrix(0,-0.66666667,0.66604479,0,-258.25992,677.00001)"
         id="g875"
         inkscape:label="Layer 1"
         style="fill:#ff00ff;fill-opacity:1;stroke:none;display:inline">
        <path
           style="fill:#ff00ff;fill-opacity:1;stroke:none;display:inline"
           d="m 46.702703,898.22775 50.594594,0 C 138.16216,898.22775 144,904.06497 144,944.92583 l 0,50.73846 c 0,40.86071 -5.83784,46.69791 -46.702703,46.69791 l -50.594594,0 C 5.8378378,1042.3622 0,1036.525 0,995.66429 L 0,944.92583 C 0,904.06497 5.8378378,898.22775 46.702703,898.22775 Z"
           id="path877"
           inkscape:connector-curvature="0"
           sodipodi:nodetypes="sssssssss" />
      </g>
    </clipPath>
    <filter
       inkscape:collect="always"
       id="filter891"
       inkscape:label="Badge Shadow">
      <feGaussianBlur
         inkscape:collect="always"
         stdDeviation="0.71999962"
         id="feGaussianBlur893" />
    </filter>
    <linearGradient
       inkscape:collect="always"
       xlink:href="#linearGradient4864"
       id="linearGradient4870"
       x1="-270.4192"
       y1="683.29077"
       x2="-169.5808"
       y2="683.29077"
       gradientUnits="userSpaceOnUse" />
  </defs>
  <sodipodi:namedview
     id="base"
     pagecolor="#ffffff"
     bordercolor="#666666"
     borderopacity="1.0"
     inkscape:pageopacity="0.0"
     inkscape:pageshadow="2"
     inkscape:zoom="4.0745362"
     inkscape:cx="-17.808482"
     inkscape:cy="49.018169"
     inkscape:document-units="px"
     inkscape:current-layer="layer1"
     showgrid="true"
     fit-margin-top="0"
     fit-margin-left="0"
     fit-margin-right="0"
     fit-margin-bottom="0"
     inkscape:window-width="1855"
     inkscape:window-height="1056"
     inkscape:window-x="1431"
     inkscape:window-y="24"
     inkscape:window-maximized="1"
     showborder="true"
     showguides="true"
     inkscape:guide-bbox="true"
     inkscape:showpageshadow="false">
    <inkscape:grid
       type="xygrid"
       id="grid821" />
    <sodipodi:guide
       orientation="1,0"
       position="16,48"
       id="guide823" />
    <sodipodi:guide
       orientation="0,1"
       position="64,80"
       id="guide825" />
    <sodipodi:guide
       orientation="1,0"
       position="80,40"
       id="guide827" />
    <sodipodi:guide
       orientation="0,1"
       position="64,16"
       id="guide829" />
  </sodipodi:namedview>
  <metadata
     id="metadata6522">
    <rdf:RDF>
      <cc:Work
         rdf:about="">
        <dc:format>image/svg+xml</dc:format>
        <dc:type
           rdf:resource="http://purl.org/dc/dcmitype/StillImage" />
        <dc:title />
      </cc:Work>
    </rdf:RDF>
  </metadata>
  <g
     inkscape:label="BACKGROUND"
     inkscape:groupmode="layer"
     id="layer1"
     transform="translate(268,-635.29076)"
     style="display:inline">
    <path
       style="fill:url(#linearGradient4870);fill-opacity:1;stroke:none;display:inline;"
       d="m -268,700.15563 0,-33.72973 c 0,-27.24324 3.88785,-31.13513 31.10302,-31.13513 l 33.79408,0 c 27.21507,0 31.1029,3.89189 31.1029,31.13513 l 0,33.72973 c 0,27.24325 -3.88783,31.13514 -31.1029,31.13514 l -33.79408,0 C -264.11215,731.29077 -268,727.39888 -268,700.15563 Z"
       id="path6455"
       inkscape:connector-curvature="0"
       sodipodi:nodetypes="sssssssss" />
    <g
       id="g4266"
       transform="matrix(1.1630258,0,0,1.188136,210.99886,-10.195017)"
       style="display:inline;fill:#e25236;fill-opacity:1">
      <path
         style="fill:#e25236;fill-opacity:1"
         d="m -364.70502,615.93669 c -3.02576,-0.70123 -29.44492,-8.62444 -30.50013,-9.14711 -0.84535,-0.41872 -1.529,-1.25835 -1.98445,-2.43722 -0.38215,-0.98915 -2.29171,-8.52476 -4.24347,-16.74581 -3.07796,-12.96475 -3.48761,-15.14641 -3.08841,-16.448 0.36337,-1.18473 2.79206,-3.57789 11.53725,-11.36842 6.09234,-5.42728 11.67258,-10.2941 12.40052,-10.81515 0.80764,-0.5781 1.94928,-0.94737 2.92893,-0.94737 1.8697,0 32.49451,8.88 34.10015,9.88771 0.59576,0.3739 1.3656,1.28634 1.71076,2.02764 0.71751,1.54101 7.25016,28.90078 7.25016,30.36481 0,0.53005 -0.44508,1.56829 -0.98906,2.30721 -1.54594,2.09993 -24.55782,22.37827 -26.14096,23.03572 -1.47315,0.61177 -1.54558,0.61872 -2.98129,0.28599 z m 0.85704,-6.40112 c 0.53788,-0.83362 4.19815,-12.86286 4.19815,-13.79694 0,-1.25972 0.34648,-1.12687 -13.50904,-5.18 -11.77233,-3.44375 -13.03284,-3.71517 -13.54774,-2.91715 -0.8563,1.32713 -4.45172,13.72361 -4.14195,14.28086 0.35604,0.64049 23.94361,7.93864 25.78791,7.97895 0.52972,0.0116 1.07542,-0.153 1.21267,-0.36572 z m 11.97844,-9.3864 c 4.7225,-4.21734 8.36052,-7.74001 8.0845,-7.82814 -0.55585,-0.17747 -10.13055,1.82513 -11.98075,2.50584 -1.33356,0.49062 -1.5331,0.89701 -3.65605,7.44559 -1.58315,4.8835 -1.73701,5.54461 -1.2904,5.54461 0.14098,0 4.1202,-3.45055 8.8427,-7.6679 z m -36.82692,-13.44898 c 0.0261,-0.85101 -1.0383,-2.24234 -4.47143,-5.84476 -2.75984,-2.89591 -4.55655,-4.48275 -4.63693,-4.09527 -0.14142,0.68179 4.6154,20.83005 5.09072,21.56253 0.33669,0.51886 3.96738,-9.98422 4.01764,-11.6225 z m 29.04663,4.65488 c 0,-0.71291 -3.50478,-15.92813 -4.91272,-21.32746 -0.29014,-1.11268 -0.71635,-1.78948 -1.12692,-1.78948 -0.36316,0 -3.3563,2.39879 -6.65143,5.33064 -10.81303,9.62095 -12.43055,11.1961 -11.96008,11.64674 0.56953,0.54552 23.88456,7.41016 24.32146,7.16096 0.18133,-0.10342 0.32969,-0.56305 0.32969,-1.0214 z m 10.61271,0.0437 c 3.22937,-0.69325 6.29483,-1.35477 6.81215,-1.47005 0.51731,-0.11527 1.06948,-0.53135 1.22703,-0.92462 0.44346,-1.10694 -5.50962,-25.39105 -6.32713,-25.80994 -0.78769,-0.4036 -14.74097,2.55838 -15.50657,3.29172 -0.36704,0.35157 0.16883,3.28002 2.0721,11.32378 3.45311,14.59384 3.53605,14.84957 4.81605,14.84957 0.56914,0 3.677,-0.56721 6.90637,-1.26046 z m -27.55204,-16.46541 c 6.99792,-6.2444 9.91574,-9.11244 9.82101,-9.65346 -0.2095,-1.19648 -9.96061,-10.93645 -10.94897,-10.93645 -0.8585,0 -19.58918,16.40504 -20.05324,17.56338 -0.13192,0.32928 -0.004,1.01222 0.28498,1.51765 0.76197,1.33419 9.87061,10.39265 10.45022,10.39265 0.26962,0 4.97032,-3.9977 10.446,-8.88377 z m 20.23618,-12.11673 c 2.90124,-0.64766 5.23946,-1.34703 5.19605,-1.55416 -0.0916,-0.43692 -21.73428,-6.8779 -22.23448,-6.61709 -0.18389,0.0959 1.68678,2.24613 4.15705,4.77831 5.25594,5.38766 4.65498,5.22937 12.88138,3.39294 z"
         id="path4270"
         inkscape:connector-curvature="0" />
      <path
         style="fill:#e25236;fill-opacity:1"
         d="m -380.22863,611.40484 c -13.81798,-4.10314 -15.87738,-4.90965 -16.81312,-6.58439 -0.21211,-0.37964 -2.08016,-7.81933 -4.1512,-16.53264 l -3.76553,-15.84239 0.78516,-1.66901 c 0.55933,-1.18895 4.07254,-4.59001 12.21427,-11.82437 6.28601,-5.58544 11.88707,-10.32839 12.44679,-10.53989 0.55972,-0.2115 1.51084,-0.38454 2.11359,-0.38454 1.09986,0 32.24091,9.00734 33.68365,9.74276 0.4231,0.21567 1.05465,0.81178 1.40346,1.32468 0.3488,0.51291 2.24868,7.65887 4.22196,15.87992 3.37659,14.06757 3.55273,15.03877 2.99235,16.50014 -0.58646,1.5294 -1.64359,2.51959 -20.93043,19.60512 -5.29935,4.6945 -5.36596,4.73656 -7.45182,4.705 -1.35598,-0.0205 -7.31415,-1.57875 -16.74913,-4.38039 z m 16.44617,-1.97081 c 0.17329,-0.26857 1.26187,-3.42714 2.41906,-7.01904 1.54115,-4.7837 1.99125,-6.73251 1.68255,-7.285 -0.27437,-0.49106 -2.3749,-1.33735 -6.01966,-2.42528 -20.01412,-5.97404 -20.24873,-6.02962 -21.07621,-4.9929 -0.23105,0.28948 -1.36286,3.53234 -2.51512,7.20636 -1.8355,5.85252 -2.01563,6.7561 -1.45408,7.29398 0.74072,0.7095 23.69389,7.63014 25.46548,7.67814 0.6506,0.0176 1.32469,-0.18769 1.49798,-0.45626 z m 11.97772,-9.1959 c 4.5921,-4.05263 8.36505,-7.51053 8.38434,-7.68421 0.0611,-0.54998 -1.51158,-0.34979 -7.25865,0.92397 -3.07652,0.68186 -5.86438,1.49906 -6.19524,1.81597 -0.57774,0.55339 -4.08919,10.87678 -4.09262,12.03198 -8.8e-4,0.30878 0.18161,0.49825 0.40561,0.42106 0.224,-0.0772 4.16445,-3.45614 8.75656,-7.50877 z m -38.64569,-7.11718 c 0.98353,-2.98813 1.78824,-5.92882 1.78824,-6.53487 0,-0.79658 -1.07708,-2.23706 -3.88714,-5.19861 -4.06133,-4.28027 -5.25356,-5.38035 -5.53167,-5.10408 -0.28258,0.28071 5.15903,22.27053 5.51108,22.27053 0.18218,0 1.13595,-2.44484 2.11949,-5.43297 z m 30.90684,-0.98808 c 0.28335,-0.74451 -5.16857,-23.43842 -5.76892,-24.01347 -0.36708,-0.3516 -0.97771,-0.0367 -2.3615,1.21783 -1.02652,0.93063 -4.83357,4.31419 -8.46012,7.51903 -3.62654,3.20484 -7.08105,6.26899 -7.67668,6.80921 -0.86401,0.78364 -0.97289,1.0898 -0.53854,1.51429 0.47156,0.46084 22.74251,7.33602 24.10301,7.44074 0.27635,0.0213 0.59258,-0.19816 0.70275,-0.48763 z m 10.94606,-0.73501 c 6.75817,-1.45178 7.84968,-1.83517 7.84968,-2.7572 0,-0.36748 -1.29399,-6.10312 -2.87554,-12.74586 -2.68105,-11.26079 -3.35171,-13.18507 -4.57146,-13.11655 -0.13512,0.008 -3.39061,0.71812 -7.23443,1.57895 -4.67093,1.04606 -7.13909,1.79512 -7.44204,2.25857 -0.33574,0.51362 0.2682,3.73445 2.32909,12.42105 1.5303,6.45019 2.94566,12.15394 3.14524,12.67499 0.48701,1.27142 1.60509,1.23153 8.79946,-0.31395 z m -28.08114,-16.27947 c 5.83481,-5.19196 9.82314,-9.05355 9.89332,-9.57895 0.0828,-0.62013 -1.32521,-2.37337 -4.76473,-5.93288 -5.29775,-5.48259 -5.81345,-5.89503 -6.73857,-5.38935 -0.56062,0.30645 -15.21598,13.2096 -18.6179,16.39194 -1.01707,0.95142 -1.34529,1.56315 -1.13498,2.11532 0.4458,1.17039 10.25696,11.09261 10.96846,11.09261 0.34026,0 5.01774,-3.91441 10.3944,-8.69869 z m 19.5843,-12.05409 c 3.21878,-0.74387 5.85698,-1.54195 5.86268,-1.77353 0.0112,-0.45606 -22.02553,-7.10652 -22.39027,-6.75716 -0.33241,0.3184 8.29213,9.10766 9.33334,9.5116 1.19418,0.46329 0.58649,0.54615 7.19425,-0.98091 z"
         id="path4268"
         inkscape:connector-curvature="0" />
    </g>
  </g>
  <g
     inkscape:groupmode="layer"
     id="layer3"
     inkscape:label="PLACE YOUR PICTOGRAM HERE"
     style="display:inline" />
  <g
     inkscape:groupmode="layer"
     id="layer2"
     inkscape:label="BADGE"
     style="display:none"
     sodipodi:insensitive="true">
    <g
       style="display:inline"
       transform="translate(-340.00001,-581)"
       id="g4394"
       clip-path="none">
      <g
         id="g855">
        <g
           inkscape:groupmode="maskhelper"
           id="g870"
           clip-path="url(#clipPath873)"
           style="opacity:0.6;filter:url(#filter891)">
          <path
             transform="matrix(1.4999992,0,0,1.4999992,-29.999795,-237.54282)"
             d="m 264,552.36218 a 12,12 0 0 1 -12,12 12,12 0 0 1 -12,-12 12,12 0 0 1 12,-12 12,12 0 0 1 12,12 z"
             sodipodi:ry="12"
             sodipodi:rx="12"
             sodipodi:cy="552.36218"
             sodipodi:cx="252"
             id="path844"
             style="color:#000000;fill:#000000;fill-opacity:1;fill-rule:nonzero;stroke:none;stroke-width:4;marker:none;visibility:visible;display:inline;overflow:visible;enable-background:accumulate"
             sodipodi:type="arc" />
        </g>
        <g
           id="g862">
          <path
             sodipodi:type="arc"
             style="color:#000000;fill:#f5f5f5;fill-opacity:1;fill-rule:nonzero;stroke:none;stroke-width:4;marker:none;visibility:visible;display:inline;overflow:visible;enable-background:accumulate"
             id="path4398"
             sodipodi:cx="252"
             sodipodi:cy="552.36218"
             sodipodi:rx="12"
             sodipodi:ry="12"
             d="m 264,552.36218 a 12,12 0 0 1 -12,12 12,12 0 0 1 -12,-12 12,12 0 0 1 12,-12 12,12 0 0 1 12,12 z"
             transform="matrix(1.4999992,0,0,1.4999992,-29.999795,-238.54282)" />
          <path
             transform="matrix(1.25,0,0,1.25,33,-100.45273)"
             d="m 264,552.36218 a 12,12 0 0 1 -12,12 12,12 0 0 1 -12,-12 12,12 0 0 1 12,-12 12,12 0 0 1 12,12 z"
             sodipodi:ry="12"
             sodipodi:rx="12"
             sodipodi:cy="552.36218"
             sodipodi:cx="252"
             id="path4400"
             style="color:#000000;fill:#dd4814;fill-opacity:1;fill-rule:nonzero;stroke:none;stroke-width:4;marker:none;visibility:visible;display:inline;overflow:visible;enable-background:accumulate"
             sodipodi:type="arc" />
          <path
             sodipodi:type="star"
             style="color:#000000;fill:#f5f5f5;fill-opacity:1;fill-rule:nonzero;stroke:none;stroke-width:3;marker:none;visibility:visible;display:inline;overflow:visible;enable-background:accumulate"
             id="path4459"
             sodipodi:sides="5"
             sodipodi:cx="666.19574"
             sodipodi:cy="589.50385"
             sodipodi:r1="7.2431178"
             sodipodi:r2="4.3458705"
             sodipodi:arg1="1.0471976"
             sodipodi:arg2="1.6755161"
             inkscape:flatsided="false"
             inkscape:rounded="0.1"
             inkscape:randomized="0"
             d="m 669.8173,595.77657 c -0.39132,0.22593 -3.62645,-1.90343 -4.07583,-1.95066 -0.44938,-0.0472 -4.05653,1.36297 -4.39232,1.06062 -0.3358,-0.30235 0.68963,-4.03715 0.59569,-4.47913 -0.0939,-0.44198 -2.5498,-3.43681 -2.36602,-3.8496 0.18379,-0.41279 4.05267,-0.59166 4.44398,-0.81759 0.39132,-0.22593 2.48067,-3.48704 2.93005,-3.4398 0.44938,0.0472 1.81505,3.67147 2.15084,3.97382 0.3358,0.30236 4.08294,1.2817 4.17689,1.72369 0.0939,0.44198 -2.9309,2.86076 -3.11469,3.27355 -0.18379,0.41279 0.0427,4.27917 -0.34859,4.5051 z"
             transform="matrix(1.511423,-0.16366377,0.16366377,1.511423,-755.37346,-191.93651)" />
        </g>
      </g>
    </g>
  </g>
</svg>
